<svg xmlns="http://www.w3.org/2000/svg" viewBox="0 0 100 100" fill="none">
  <defs>
    <linearGradient id="ritual-gold" x1="24" y1="12" x2="79" y2="91" gradientUnits="userSpaceOnUse">
      <stop stop-color="#F8D98A"/>
      <stop offset="0.54" stop-color="#E8C56F"/>
      <stop offset="1" stop-color="#B9822E"/>
    </linearGradient>
  </defs>
  <path
    d="M18 88V41C18 23.3 32.3 9 50 9s32 14.3 32 32v47H18Z"
    fill="none"
    stroke="url(#ritual-gold)"
    stroke-width="3.4"
    stroke-linecap="round"
    stroke-linejoin="round"
  />
  <path
    d="M55 88C45 82 38.4 75.2 40.7 68.4c2.4-7 16.3-9.1 18.9-14.9 2-4.5-4.4-7.8-8.2-10.5"
    fill="none"
    stroke="url(#ritual-gold)"
    stroke-width="5.4"
    stroke-linecap="round"
  />
  <path
    d="M43.8 64.1c8.5 2.4 18.4 1 25.9-4.2"
    fill="none"
    stroke="url(#ritual-gold)"
    stroke-width="2.7"
    stroke-linecap="round"
  />
  <circle cx="70.5" cy="59.3" r="2.9" fill="#E8C56F"/>
  <circle cx="70.5" cy="59.3" r="1.15" fill="#08242D"/>
  <path
    d="M50 20.5c1.15 4.9 3.25 7.05 8.2 8.2-4.95 1.15-7.05 3.3-8.2 8.2-1.15-4.9-3.3-7.05-8.2-8.2 4.9-1.15 7.05-3.3 8.2-8.2Z"
    fill="#F8E8B7"
  />
  <circle cx="50" cy="39.4" r="1.05" fill="#E8C56F"/>
  <circle cx="50" cy="42.8" r="0.75" fill="#E8C56F"/>
  <path d="M30.5 43.1c.55 2.1 1.45 3 3.55 3.55-2.1.55-3 1.45-3.55 3.55-.55-2.1-1.45-3-3.55-3.55 2.1-.55 3-1.45 3.55-3.55Z" fill="#F4D98E"/>
  <path d="M72.7 41.7c.45 1.7 1.2 2.45 2.9 2.9-1.7.45-2.45 1.2-2.9 2.9-.45-1.7-1.2-2.45-2.9-2.9 1.7-.45 2.45-1.2 2.9-2.9Z" fill="#F4D98E"/>
</svg>
